# xmcd CD database file
#
# Track frame offsets:
#	150
#	24924
#	54075
#	76826
#	84457
#	113664
#
# Disc length: 3270 seconds
#
# Revision: 0
# Processed by: cddbd v1.5.2PL0 Copyright (c) Steve Scherf et al.
# Submitted via: CDex 1.70beta2
#
DISCID=310cc406
DTITLE=SLOMIND - GROWN AGAINST THE GRAIN
DYEAR=2013
DGENRE=Stoner
TTITLE0=STONECLOUD-SUPERNOVA
TTITLE1=THRONE OF VOLT
TTITLE2=EXHALE THE VILE
TTITLE3=CRAWL UP INSIDE YOU AND DIE
TTITLE4=IT WILL SURVIVE THE TIDE
TTITLE5=DATATRACK 06
EXTD=YEAR: 2013
EXTT0=
EXTT1=
EXTT2=
EXTT3=
EXTT4=
EXTT5=
PLAYORDER=
